<?xml version="1.0" encoding="UTF-8"?>
<svg id="Layer_1" data-name="Layer 1" xmlns="http://www.w3.org/2000/svg" viewBox="0 0 100 100">
  <defs>
    <style>
      .cls-1 {
        fill: #fff;
      }

      .cls-2 {
        fill: #7ac943;
      }
    </style>
  </defs>
  <g>
    <polygon class="cls-1" points="50 70.85 26.67 83.11 31.11 57.22 1.8 2.31 38.16 35.3 50 11.31 61.84 35.3 98.2 2.31 68.89 57.22 73.33 83.11 50 70.85"/>
    <path d="m3.6,4.61l33.73,30.61.98.89.59-1.19,11.1-22.49,11.1,22.49.59,1.19.98-.89L96.4,4.61l-27.87,52.22-.16.3.06.34,4.24,24.72-22.2-11.67-.47-.24-.47.24-22.2,11.67,4.24-24.72.06-.34-.16-.3L3.6,4.61M100,0l-38,34.49-12-24.31-12,24.31L0,0l30.59,57.31-4.58,26.72,24-12.62,24,12.62-4.58-26.72L100,0h0Z"/>
  </g>
  <g>
    <polygon class="cls-2" points="49.75 78.77 26.42 91.03 30.86 65.14 1.55 10.23 37.91 43.22 49.75 19.22 61.59 43.22 97.95 10.23 68.64 65.14 73.08 91.03 49.75 78.77"/>
    <path d="m3.35,12.53l33.73,30.61.98.89.59-1.19,11.1-22.49,11.1,22.49.59,1.19.98-.89,33.73-30.61-27.87,52.22-.16.3.06.34,4.24,24.72-22.2-11.67-.47-.24-.47.24-22.2,11.67,4.24-24.72.06-.34-.16-.3L3.35,12.53m96.4-4.61l-38,34.49-12-24.31-12,24.31L-.25,7.92l30.59,57.31-4.58,26.72,24-12.62,24,12.62-4.58-26.72L99.75,7.92h0Z"/>
  </g>
</svg>